# xmcd
#
# Track frame offsets: 
#        150
#        12755
#        28672
#        43847
#        60322
#        73085
#        84447
#        97412
#        110295
#        119735
#        131450
#        143742
#        154962
#        169075
#        181150
#        191835
#        204447
#        217660
#        230620
#        241805
#        253742
#        264555
#        275285
#
# Disc length: 3847 seconds
#
# Revision: 2
# Processed by: cddbd v1.5.1PL0 Copyright (c) Steve Scherf et al.
# Submitted via: ExactAudioCopy v0.95a5
#
DISCID=490f0517
DTITLE=Jimmy Reed - Jimmy Reed at Carnegie Hall
DYEAR=1900
DGENRE=Blues
TTITLE0=Bright Lights, Big City
TTITLE1=I'm Mr. Luck
TTITLE2=Baby What's Wrong
TTITLE3=Found Joy
TTITLE4=Kind of Lonesome
TTITLE5=Aw Shucks Hush Your Mouth
TTITLE6=Tell Me You Love Me
TTITLE7=Blue Carnegie
TTITLE8=I'm a Love You
TTITLE9=Hold Me Close
TTITLE10=Blue Blue Water
TTITLE11=Baby What You Want Me To Do
TTITLE12=You Don't Have To Go
TTITLE13=Hush Hush
TTITLE14=Found Love
TTITLE15=Honest I Do
TTITLE16=You Got Me Dizzy
TTITLE17=Big Boss Man
TTITLE18=Take Out Some Insurance
TTITLE19=Boogie in the Dark
TTITLE20=Going To New York
TTITLE21=Ain't That Lovin' You Baby
TTITLE22=The Sun is Shining
EXTD=
EXTT0=
EXTT1=
EXTT2=
EXTT3=
EXTT4=
EXTT5=
EXTT6=
EXTT7=
EXTT8=
EXTT9=
EXTT10=
EXTT11=
EXTT12=
EXTT13=
EXTT14=
EXTT15=
EXTT16=
EXTT17=
EXTT18=
EXTT19=
EXTT20=
EXTT21=
EXTT22=
PLAYORDER=
